<svg fill="none" height="26" viewBox="0 0 94 26" width="94" xmlns="http://www.w3.org/2000/svg" xmlns:xlink="http://www.w3.org/1999/xlink"><linearGradient id="a" gradientUnits="userSpaceOnUse" x1="16" x2="13" y1="26" y2=".000001"><stop offset="0" stop-color="#2b3eed"/><stop offset="1" stop-color="#6573f4"/></linearGradient><path d="m24.2861 1.69095c-2.2602-2.2546-5.9586-2.2546-8.2187 0-2.2739 2.26826-2.2602 5.94394 0 8.19854 2.2738 2.26831 5.9585 2.28191 8.2324.01367 2.2601-2.2546 2.2738-5.93028 0-8.19855z" fill="url(#a)"/><path d="m.604164 13.0808c2.768486.2454 5.786496 1.6591 8.248256 4.1149l.02736.0272c2.46902 2.463 3.88372 5.4613 4.13192 8.2117 1.498.3904 3.0379.5787 4.5763.5647v-11.6146c-1.5341.0273-3.0683-.5466-4.2463-1.7217-1.1095-1.1068-1.6848-2.5279-1.7122-3.97631l-11.6295-.01367c.00969206 1.48298.211901 2.96558.604164 4.40778z" fill="url(#a)"/><g fill="#fff"><path d="m40.6053 23.32c4.288 0 6.688-2.08 7.424-5.44h-3.104c-.512 1.888-1.984 3.104-4.32 3.104-2.816 0-4.672-1.696-4.768-5.6h12.48c.032-.32.064-.608.064-.928 0-4.73603-2.752-8.28803-7.968-8.28803s-7.968 3.488-7.968 8.57603c0 5.248 2.912 8.576 8.16 8.576zm-.192-14.81603c2.56 0 4.224 1.53603 4.576 4.64003h-9.152c.352-3.104 2.016-4.64003 4.576-4.64003z"/><path d="m54.3211 23v-7.84c0-3.68 1.76-5.76003 4.448-5.76003l1.632.064v-2.976c-.416-.096-1.056-.192-1.504-.192-2.4 0-3.872 1.088-4.736 4.00003v-3.80803h-3.232v16.51203z"/><path d="m69.1133 23.32c5.184 0 7.168-2.272 7.168-5.12 0-3.008-2.048-4.224-5.408-4.704l-3.04-.448c-1.28-.192-2.048-.672-2.048-2.016 0-1.60003.896-2.59203 3.296-2.59203 2.816 0 3.328 1.376 3.488 2.91203h3.264c0-2.91203-1.792-5.18403-6.72-5.18403s-6.72 2.272-6.72 5.12003c0 2.752 1.472 3.968 4.928 4.448l3.04.448c1.568.224 2.528.896 2.528 2.208 0 1.408-.864 2.656-3.744 2.656-2.944 0-3.776-1.28-3.936-3.168h-3.264c0 3.168 1.984 5.44 7.168 5.44z"/><path d="m84.1153 23.32c2.848 0 4.672-1.056 5.568-3.168 0 1.536.192 2.208.704 2.848h3.04c-.32-.544-.512-1.984-.512-4.224v-7.168c0-3.32803-2.08-5.44003-6.912-5.44003-4.864 0-6.912 2.112-6.912 5.44003h3.328c.16-2.04803 1.376-3.00803 3.616-3.00803 2.4 0 3.488 1.12 3.488 3.00803 0 1.056-.576 1.504-2.528 1.696l-3.2.256c-4.096.352-5.6 2.304-5.6 4.768 0 3.072 2.08 4.992 5.92 4.992zm.928-2.336c-2.432 0-3.456-1.184-3.456-2.88 0-1.344.928-2.336 3.296-2.528l2.112-.192c1.28-.096 2.176-.352 2.528-.8v1.408c0 2.72-1.568 4.992-4.48 4.992z"/></g></svg>