<svg fill="none" height="32" viewBox="0 0 32 32" width="32" xmlns="http://www.w3.org/2000/svg" xmlns:xlink="http://www.w3.org/1999/xlink"><linearGradient id="a" gradientUnits="userSpaceOnUse" x1="10.9555" x2="20.3042" y1="28.0628" y2="4.22121"><stop offset="0" stop-color="#50657b"/><stop offset="1" stop-color="#6f87a0"/></linearGradient><path d="m29.3278 24.3076c0 .96-.5466 2.8267-1.752 3.8533-.2533.1867-.4933.08-.3866-.2.3466-.8666 1.16-2.8666.7733-3.3333-.2667-.36-1.3733-.3333-2.32-.2533-.44.0533-.8133.08-1.1067.1333-.28.0133-.3333-.2267-.0666-.4133.3466-.2534.72-.44 1.16-.5734 1.5333-.4666 3.3066-.1866 3.56.1067.04.0533.1066.2133.1066.6133zm-2.5733 1.72h-.0133c-.36.2667-.7334.5067-1.1067.72-2.8293 1.6933-6.4933 2.5867-9.68 2.5867-5.124 0-9.70667-1.8934-13.184-5.0534-.30667-.2533-.05333-.6.29333-.4133 3.74667 2.1867 8.37337 3.5067 13.18537 3.5067 3.0133 0 6.2666-.5734 9.38-1.7867.2133-.0933.4533-.2.6666-.28.48-.2267.92.32.4267.6667zm-8.2347-14.7067c0-1.39996.0534-2.2053-.4133-2.90663-.4133-.58667-1.12-.93333-2.0933-.88-1.064.05333-2.2134.74667-2.5067 2.02667-.0667.29333-.24.57336-.5867.63996l-3.23997-.4133c-.24-.05333-.58666-.24-.48-.70666.69334-3.68 3.82667-4.96 6.78667-5.12h.6933c1.6267 0 3.7067.45333 5.0534 1.68 1.6133 1.50666 1.44 3.54933 1.44 5.75996v5.2267c0 1.56.6266 2.2667 1.2666 3.0853.1734.28.2267.6267-.0666.8667-.64.5733-1.8667 1.6133-2.56 2.2-.24.1733-.6534.1867-.8134.0533-1.0266-.8666-1.28-1.3466-1.92-2.2133-1.1066 1.16-2.04 1.8-3.1466 2.1467h-.0134c-.7866.1866-1.5866.2933-2.3866.28-2.7867 0-5.00003-1.7467-5.00003-5.1734 0-2.7333 1.45333-4.5893 3.60003-5.48 2.1466-.88 5.2666-1.16 6.2666-1.1733zm-.64 6.92c.6934-1.1733.6267-2.12.6267-4.2533-.88 0-1.7467.0533-2.5067.2267-1.3933.4-2.5066 1.28-2.5066 3.1333 0 1.4533.7466 2.44 2.0266 2.44.1734 0 .32-.0267.4534-.0667.8933-.2533 1.44-.7066 1.8533-1.52z" fill="url(#a)"/></svg>